<svg xmlns="http://www.w3.org/2000/svg" viewBox="0 0 1280 760" role="img" aria-labelledby="title desc">
  <title id="title">Annotated VS Code overview</title>
  <desc id="desc">A generated screenshot-style diagram showing Explorer, editor, terminal, activity bar, command palette and status bar.</desc>
  <defs>
    <filter id="shadow" x="-20%" y="-20%" width="140%" height="140%">
      <feDropShadow dx="0" dy="18" stdDeviation="22" flood-color="#10231f" flood-opacity="0.24"/>
    </filter>
    <marker id="arrow" markerWidth="14" markerHeight="14" refX="10" refY="5" orient="auto">
      <path d="M0,0 L10,5 L0,10 z" fill="#ffb454"/>
    </marker>
  </defs>
  <rect width="1280" height="760" fill="#10231f"/>
  <rect x="56" y="50" width="1168" height="650" rx="24" fill="#1e1e1e" filter="url(#shadow)"/>
  <rect x="56" y="50" width="1168" height="42" rx="24" fill="#2d2d30"/>
  <circle cx="86" cy="71" r="7" fill="#ff5f57"/>
  <circle cx="112" cy="71" r="7" fill="#ffbd2e"/>
  <circle cx="138" cy="71" r="7" fill="#28c840"/>
  <text x="610" y="77" text-anchor="middle" fill="#d4d4d4" font-family="Segoe UI, Arial" font-size="16">studentOnBoarding - Visual Studio Code</text>
  <rect x="56" y="92" width="62" height="568" fill="#333333"/>
  <circle cx="87" cy="132" r="17" fill="#75beff"/>
  <circle cx="87" cy="190" r="17" fill="#c586c0"/>
  <circle cx="87" cy="248" r="17" fill="#89d185"/>
  <circle cx="87" cy="306" r="17" fill="#dcdcaa"/>
  <rect x="118" y="92" width="245" height="568" fill="#252526"/>
  <text x="142" y="132" fill="#cccccc" font-family="Segoe UI, Arial" font-size="18" font-weight="700">EXPLORER</text>
  <text x="142" y="176" fill="#e8e8e8" font-family="Consolas, monospace" font-size="18">studentOnBoarding</text>
  <text x="164" y="218" fill="#c5c5c5" font-family="Consolas, monospace" font-size="17">src</text>
  <text x="184" y="252" fill="#9cdcfe" font-family="Consolas, monospace" font-size="17">App.tsx</text>
  <text x="184" y="286" fill="#9cdcfe" font-family="Consolas, monospace" font-size="17">data/lessons.ts</text>
  <text x="164" y="320" fill="#c5c5c5" font-family="Consolas, monospace" font-size="17">config</text>
  <text x="184" y="354" fill="#ce9178" font-family="Consolas, monospace" font-size="17">environment.example.yaml</text>
  <rect x="363" y="92" width="861" height="388" fill="#1e1e1e"/>
  <rect x="363" y="92" width="861" height="38" fill="#2d2d30"/>
  <text x="388" y="117" fill="#d4d4d4" font-family="Segoe UI, Arial" font-size="16">lessons.ts</text>
  <text x="400" y="168" fill="#569cd6" font-family="Consolas, monospace" font-size="20">export</text>
  <text x="476" y="168" fill="#d4d4d4" font-family="Consolas, monospace" font-size="20">const lessons = [</text>
  <text x="438" y="212" fill="#ce9178" font-family="Consolas, monospace" font-size="20">"VS Code Basics"</text>
  <text x="438" y="256" fill="#ce9178" font-family="Consolas, monospace" font-size="20">"Python Virtual Environments"</text>
  <text x="438" y="300" fill="#ce9178" font-family="Consolas, monospace" font-size="20">"GPU Cluster Workflow"</text>
  <text x="400" y="344" fill="#d4d4d4" font-family="Consolas, monospace" font-size="20">]</text>
  <rect x="363" y="480" width="861" height="180" fill="#111827"/>
  <text x="390" y="522" fill="#83d6b4" font-family="Consolas, monospace" font-size="20">(.venv) PS C:\lab\project&gt; python script.py</text>
  <text x="390" y="566" fill="#d3e6dd" font-family="Consolas, monospace" font-size="20">Loaded 128 image-mask pairs</text>
  <text x="390" y="610" fill="#d3e6dd" font-family="Consolas, monospace" font-size="20">Dataset QA passed</text>
  <rect x="56" y="660" width="1168" height="40" fill="#007acc"/>
  <text x="86" y="686" fill="#ffffff" font-family="Segoe UI, Arial" font-size="16">Python 3.11 (.venv)</text>
  <text x="1028" y="686" fill="#ffffff" font-family="Segoe UI, Arial" font-size="16">main  UTF-8  PowerShell</text>
  <g fill="#fffbeb" stroke="#ffb454" stroke-width="3">
    <rect x="165" y="22" width="170" height="44" rx="10"/>
    <rect x="626" y="18" width="164" height="44" rx="10"/>
    <rect x="720" y="685" width="165" height="44" rx="10"/>
    <rect x="930" y="420" width="180" height="44" rx="10"/>
  </g>
  <g fill="#4a2f07" font-family="Segoe UI, Arial" font-size="18" font-weight="700">
    <text x="190" y="51">Activity bar</text>
    <text x="655" y="47">Editor area</text>
    <text x="748" y="714">Status bar</text>
    <text x="958" y="449">Terminal</text>
  </g>
  <g stroke="#ffb454" stroke-width="4" marker-end="url(#arrow)">
    <line x1="218" y1="66" x2="92" y2="128"/>
    <line x1="708" y1="62" x2="720" y2="162"/>
    <line x1="804" y1="685" x2="995" y2="684"/>
    <line x1="1018" y1="464" x2="900" y2="520"/>
  </g>
</svg>
